<?xml version="1.0" standalone="no"?>
<!DOCTYPE svg PUBLIC "-//W3C//DTD SVG 20010904//EN"
 "http://www.w3.org/TR/2001/REC-SVG-20010904/DTD/svg10.dtd">
<svg version="1.0" xmlns="http://www.w3.org/2000/svg"
 width="101.000000pt" height="116.000000pt" viewBox="0 0 101.000000 116.000000"
 preserveAspectRatio="xMidYMid meet">

<g transform="translate(0.000000,116.000000) scale(0.100000,-0.100000)"
fill="#000000" stroke="none">
<path d="M0 580 l0 -580 95 0 95 0 0 580 0 580 -95 0 -95 0 0 -580z"/>
<path d="M560 973 c-91 -104 -209 -236 -262 -295 -54 -58 -98 -109 -98 -112 0
-3 46 -6 103 -5 l102 0 265 291 c146 160 267 295 268 299 2 5 -45 9 -105 9
l-108 0 -165 -187z"/>
<path d="M508 614 l-57 -55 152 -242 c84 -133 163 -259 176 -279 l23 -38 99 0
c54 0 99 3 99 6 0 23 -415 664 -430 664 -3 0 -31 -25 -62 -56z"/>
</g>
</svg>
